<svg width="30" height="30" viewBox="0 0 30 30" fill="none" xmlns="http://www.w3.org/2000/svg">
<rect width="30" height="30" fill="#E5E5E5"/>
<g clip-path="url(#clip0)">
<rect width="1920" height="1397" transform="translate(-1579 -1303)" fill="white"/>
<rect width="1920" height="152" transform="matrix(1 0 0 -1 -1578 94)" fill="#353D54" fill-opacity="0.85"/>
<circle cx="15" cy="15" r="15" fill="white"/>
<path d="M20.59 17.2229C20.69 17.3303 20.93 17.554 21.32 17.8851H21.33L21.34 17.8941L21.35 17.903L21.37 17.9209C22.21 18.619 22.78 19.2097 23.08 19.693C23.1 19.7198 23.12 19.7556 23.14 19.7914C23.16 19.8272 23.18 19.8988 23.2 20.0062C23.22 20.1046 23.22 20.1941 23.2 20.2747C23.18 20.3552 23.1 20.4268 22.98 20.4984C22.85 20.5611 22.68 20.5969 22.45 20.5969L20.15 20.6326C20.01 20.6595 19.84 20.6416 19.65 20.5969C19.46 20.5432 19.3 20.4805 19.18 20.4179L19 20.3194C18.82 20.2031 18.61 20.033 18.37 19.8093C18.13 19.5766 17.93 19.3708 17.76 19.1918C17.59 19.0038 17.41 18.8517 17.21 18.7264C17.02 18.6011 16.85 18.5564 16.7 18.6011C16.68 18.6101 16.66 18.619 16.63 18.628C16.6 18.6369 16.55 18.6817 16.48 18.7443C16.41 18.8069 16.34 18.8875 16.29 18.977C16.23 19.0665 16.18 19.2097 16.14 19.3976C16.1 19.5856 16.08 19.7914 16.08 20.0241C16.08 20.1046 16.07 20.1762 16.05 20.2478C16.02 20.2926 16 20.3463 15.97 20.3731L15.94 20.4179C15.83 20.5163 15.67 20.579 15.46 20.5969H14.43C14 20.6147 13.57 20.57 13.12 20.4626C12.67 20.3463 12.28 20.212 11.94 20.033C11.6 19.863 11.29 19.684 11.02 19.505C10.74 19.326 10.53 19.1739 10.39 19.0396L10.16 18.8517C10.1 18.798 10.02 18.7175 9.91001 18.6101C9.81001 18.5027 9.60001 18.261 9.27001 17.8762C8.95001 17.5003 8.63001 17.0976 8.32001 16.668C8.01 16.2384 7.65 15.6746 7.22 14.9766C6.8 14.2695 6.41 13.5446 6.05 12.7929C6.02 12.7034 6 12.6318 6 12.5781C6 12.5154 6.01 12.4707 6.03 12.4438L6.07 12.3991C6.16 12.3006 6.33 12.247 6.58 12.247L9.04001 12.2291C9.10001 12.238 9.17001 12.2559 9.24001 12.2827C9.30001 12.3096 9.35001 12.3275 9.38001 12.3543L9.42001 12.3812C9.52001 12.4438 9.59001 12.5244 9.63001 12.6407C9.75001 12.9092 9.89001 13.1867 10.04 13.473C10.2 13.7594 10.32 13.9742 10.41 14.1263L10.56 14.3501C10.73 14.6723 10.9 14.9497 11.06 15.1824C11.22 15.4151 11.37 15.603 11.5 15.7283C11.63 15.8626 11.75 15.961 11.87 16.0415C11.99 16.1131 12.09 16.1579 12.18 16.1579C12.26 16.1579 12.34 16.14 12.42 16.1131C12.43 16.1042 12.45 16.0952 12.46 16.0773C12.48 16.0594 12.51 15.9968 12.57 15.8984C12.62 15.7999 12.66 15.6746 12.69 15.5225C12.72 15.3703 12.74 15.1466 12.78 14.8692C12.81 14.5917 12.81 14.2606 12.78 13.8668C12.77 13.652 12.74 13.4551 12.7 13.2851C12.66 13.1061 12.62 12.9898 12.58 12.9182L12.52 12.8197C12.37 12.6407 12.12 12.5244 11.76 12.4707C11.68 12.4617 11.69 12.3991 11.8 12.2738C11.9 12.1754 12.02 12.0948 12.14 12.0322C12.46 11.8979 13.17 11.8353 14.29 11.8442C14.78 11.8532 15.18 11.889 15.5 11.9516C15.62 11.9785 15.72 12.0143 15.8 12.059C15.88 12.1038 15.94 12.1664 15.98 12.2559C16.02 12.3364 16.05 12.4259 16.07 12.5154C16.09 12.6049 16.1 12.7213 16.1 12.8824C16.1 13.0435 16.1 13.1867 16.09 13.3209C16.08 13.4641 16.08 13.652 16.07 13.8847C16.06 14.1263 16.06 14.3411 16.06 14.547C16.06 14.6096 16.06 14.717 16.05 14.8871C16.04 15.0482 16.04 15.1824 16.05 15.2719C16.05 15.3614 16.06 15.4688 16.08 15.5941C16.1 15.7194 16.13 15.8268 16.18 15.9073C16.23 15.9878 16.3 16.0594 16.38 16.1042C16.43 16.1131 16.48 16.1221 16.53 16.14C16.58 16.1489 16.66 16.1221 16.76 16.0505C16.86 15.9789 16.97 15.8894 17.1 15.7731C17.22 15.6567 17.38 15.4777 17.57 15.2361C17.76 14.9945 17.96 14.7081 18.18 14.3769C18.54 13.8221 18.86 13.2224 19.14 12.5691C19.16 12.5154 19.19 12.4707 19.23 12.4259C19.27 12.3901 19.3 12.3543 19.33 12.3454L19.37 12.3185L19.42 12.3006C19.42 12.3006 19.46 12.2917 19.54 12.2738C19.62 12.2559 19.68 12.2559 19.72 12.2738L22.3 12.2559C22.53 12.2291 22.72 12.238 22.87 12.2738C23.02 12.3096 23.11 12.3543 23.15 12.408L23.2 12.4886C23.34 12.8287 22.89 13.6162 21.86 14.8513C21.72 15.0213 21.52 15.254 21.28 15.5314C20.81 16.0684 20.54 16.4174 20.47 16.5785C20.36 16.7933 20.4 17.0081 20.59 17.2229Z" fill="#5D6476"/>
</g>
<defs>
<clipPath id="clip0">
<rect width="1920" height="1397" fill="white" transform="translate(-1579 -1303)"/>
</clipPath>
</defs>
</svg>
