<svg width="30" height="30" viewBox="0 0 30 30" fill="none" xmlns="http://www.w3.org/2000/svg">
<rect width="30" height="30" fill="#E5E5E5"/>
<g clip-path="url(#clip0)">
<rect width="1920" height="1397" transform="translate(-1543 -1303)" fill="white"/>
<rect width="1920" height="152" transform="matrix(1 0 0 -1 -1542 94)" fill="#353D54" fill-opacity="0.85"/>
<path d="M15 0C6.72 0 0 6.72 0 15C0 23.28 6.72 30 15 30C23.28 30 30 23.28 30 15C30 6.72 23.28 0 15 0ZM19.64 17.13C19.74 17.25 19.98 17.5 20.37 17.87H20.38L20.39 17.88L20.4 17.89L20.42 17.91C21.26 18.69 21.83 19.35 22.13 19.89C22.15 19.92 22.17 19.96 22.19 20C22.21 20.04 22.23 20.12 22.25 20.24C22.27 20.35 22.27 20.45 22.25 20.54C22.23 20.63 22.15 20.71 22.03 20.79C21.9 20.86 21.73 20.9 21.5 20.9L19.2 20.94C19.06 20.97 18.89 20.95 18.7 20.9C18.51 20.84 18.35 20.77 18.23 20.7L18.05 20.59C17.87 20.46 17.66 20.27 17.42 20.02C17.18 19.76 16.98 19.53 16.81 19.33C16.64 19.12 16.46 18.95 16.26 18.81C16.07 18.67 15.9 18.62 15.75 18.67C15.73 18.68 15.71 18.69 15.68 18.7C15.65 18.71 15.6 18.76 15.53 18.83C15.46 18.9 15.39 18.99 15.34 19.09C15.28 19.19 15.23 19.35 15.19 19.56C15.15 19.77 15.13 20 15.13 20.26C15.13 20.35 15.12 20.43 15.1 20.51C15.08 20.59 15.06 20.64 15.03 20.68L14.99 20.72C14.88 20.83 14.72 20.9 14.51 20.92H13.48C13.06 20.94 12.62 20.89 12.17 20.77C11.72 20.65 11.33 20.49 10.99 20.3C10.65 20.11 10.34 19.91 10.07 19.71C9.79 19.51 9.58 19.34 9.44 19.19L9.22 18.98C9.16 18.92 9.08 18.83 8.97 18.71C8.87 18.59 8.65 18.32 8.33 17.89C8 17.44 7.68 16.99 7.37 16.51C7.06 16.03 6.69 15.4 6.27 14.62C5.85 13.84 5.46 13.02 5.1 12.18C5.06 12.08 5.05 12 5.05 11.94C5.05 11.87 5.06 11.83 5.08 11.8L5.12 11.75C5.21 11.64 5.38 11.58 5.63 11.58L8.09 11.56C8.16 11.57 8.23 11.59 8.3 11.62C8.37 11.65 8.41 11.67 8.44 11.7L8.48 11.73C8.58 11.8 8.65 11.89 8.69 12.02C8.81 12.32 8.95 12.63 9.1 12.95C9.26 13.27 9.38 13.51 9.47 13.68L9.61 13.94C9.78 14.3 9.95 14.61 10.11 14.87C10.27 15.13 10.42 15.34 10.55 15.48C10.68 15.63 10.8 15.74 10.92 15.83C11.04 15.91 11.14 15.96 11.23 15.96C11.31 15.96 11.39 15.94 11.47 15.91C11.48 15.9 11.5 15.89 11.51 15.87C11.53 15.85 11.56 15.78 11.62 15.67C11.67 15.56 11.71 15.42 11.74 15.25C11.77 15.08 11.79 14.83 11.82 14.52C11.85 14.21 11.85 13.84 11.82 13.4C11.81 13.16 11.78 12.94 11.74 12.75C11.7 12.55 11.66 12.42 11.62 12.34L11.57 12.23C11.42 12.03 11.17 11.9 10.81 11.84C10.73 11.83 10.75 11.76 10.85 11.62C10.95 11.51 11.07 11.42 11.19 11.35C11.51 11.19 12.22 11.12 13.33 11.14C13.82 11.15 14.22 11.18 14.54 11.26C14.66 11.29 14.76 11.33 14.84 11.38C14.92 11.43 14.98 11.5 15.02 11.6C15.06 11.69 15.09 11.79 15.11 11.89C15.13 11.99 15.14 12.12 15.14 12.3C15.14 12.47 15.14 12.64 15.13 12.79C15.12 12.95 15.12 13.16 15.11 13.42C15.1 13.69 15.1 13.93 15.1 14.16C15.1 14.23 15.1 14.35 15.09 14.54C15.08 14.72 15.08 14.87 15.09 14.97C15.09 15.07 15.1 15.19 15.12 15.33C15.14 15.47 15.17 15.59 15.22 15.68C15.27 15.77 15.34 15.85 15.42 15.9C15.47 15.91 15.52 15.92 15.57 15.94C15.62 15.95 15.7 15.92 15.8 15.84C15.9 15.76 16.01 15.66 16.14 15.53C16.26 15.4 16.42 15.2 16.61 14.93C16.8 14.66 17 14.34 17.22 13.97C17.58 13.35 17.9 12.68 18.18 11.95C18.2 11.89 18.23 11.84 18.27 11.79C18.31 11.75 18.34 11.71 18.37 11.7L18.41 11.67L18.46 11.65C18.46 11.65 18.5 11.64 18.58 11.62C18.66 11.6 18.72 11.6 18.76 11.62L21.34 11.6C21.57 11.57 21.76 11.58 21.91 11.62C22.06 11.66 22.15 11.71 22.19 11.77L22.24 11.86C22.38 12.24 21.93 13.12 20.9 14.5C20.76 14.69 20.56 14.95 20.32 15.26C19.85 15.86 19.58 16.25 19.51 16.43C19.41 16.65 19.45 16.89 19.64 17.13Z" fill="white"/>
<circle cx="15" cy="15" r="15" fill="white"/>
<path d="M15.0138 7C16.0885 7.01897 17.1633 7.03035 18.2381 7.06071C19.1723 7.08727 20.0762 7.25421 20.8851 7.74745C21.9485 8.39625 22.5979 9.34859 22.8068 10.5627C22.9321 11.2874 22.9739 12.0349 22.9853 12.7709C23.0081 14.3569 23.0005 15.9466 22.9815 17.5326C22.9739 18.3673 22.9435 19.202 22.6663 20.0026C22.1308 21.5544 21.037 22.4992 19.4382 22.8027C18.7166 22.9393 17.9646 22.9696 17.2278 22.981C15.6442 23.0038 14.0605 22.9962 12.4806 22.9772C11.6451 22.9696 10.8096 22.9393 10.0083 22.6661C8.45121 22.1349 7.50556 21.0422 7.19794 19.4487C7.05742 18.7278 7.02704 17.9765 7.01565 17.2405C6.98907 15.6583 7.00046 14.0685 7.01945 12.4826C7.02704 11.6479 7.05742 10.8131 7.33466 10.0126C7.87015 8.46075 8.9639 7.51601 10.5628 7.21247C11.2843 7.07588 12.0363 7.06071 12.7731 7.03035C13.5174 7 14.2656 7.02276 15.0138 7.02276C15.0138 7.01518 15.0138 7.00759 15.0138 7ZM21.5839 14.8805C21.5725 14.8805 21.5611 14.8805 21.5497 14.8805C21.5497 14.2507 21.5611 13.6208 21.5459 12.991C21.5307 12.3839 21.5079 11.7769 21.4472 11.1736C21.3105 9.82286 20.5053 8.8895 19.1723 8.63908C18.4735 8.50628 17.7443 8.48731 17.0304 8.47214C15.6746 8.44937 14.3188 8.44937 12.963 8.47214C12.287 8.48352 11.6072 8.50628 10.9387 8.61252C9.78422 8.78705 8.99429 9.45103 8.67527 10.5969C8.57273 10.9649 8.51197 11.3519 8.50437 11.7351C8.47019 13.1807 8.44741 14.6301 8.455 16.0756C8.4588 16.9976 8.47779 17.9196 8.55754 18.8378C8.67907 20.2113 9.51458 21.1484 10.8704 21.3951C11.5654 21.5203 12.287 21.5355 12.9971 21.5506C14.3339 21.5734 15.6746 21.5658 17.0114 21.5544C17.6228 21.5468 18.2381 21.5127 18.8457 21.452C19.4154 21.3951 19.9508 21.2092 20.4066 20.8449C21.1509 20.2568 21.4358 19.4411 21.4813 18.5381C21.5383 17.3201 21.5497 16.0984 21.5839 14.8805Z" fill="#5D6476"/>
<path d="M19.1085 15.0133C19.1085 17.2898 17.2818 19.1148 14.9955 19.111C12.7017 19.111 10.8901 17.2822 10.8939 14.9677C10.8939 12.714 12.7434 10.9042 15.0411 10.9042C17.2856 10.9042 19.1085 12.7481 19.1085 15.0133ZM14.9993 17.6692C16.4615 17.6692 17.6653 16.4702 17.6653 15.0095C17.6653 13.5487 16.4615 12.346 15.0031 12.346C13.541 12.346 12.3371 13.5449 12.3371 15.0057C12.3333 16.4664 13.5372 17.6692 14.9993 17.6692Z" fill="#5D6476"/>
<path d="M20.2289 10.7373C20.2289 11.2761 19.7959 11.7124 19.268 11.7086C18.7363 11.7048 18.2958 11.2647 18.3034 10.7373C18.3072 10.2099 18.7325 9.78498 19.2642 9.78498C19.8073 9.78118 20.2289 10.1947 20.2289 10.7373Z" fill="#5D6476"/>
</g>
<defs>
<clipPath id="clip0">
<rect width="1920" height="1397" fill="white" transform="translate(-1543 -1303)"/>
</clipPath>
</defs>
</svg>
